<svg version="1.1" xmlns="http://www.w3.org/2000/svg" xmlns:xlink="http://www.w3.org/1999/xlink" x="0px" y="0px" width="10px" height="11px" viewBox="0 -20 294 334" xml:space="preserve">
<path d="M291,36.9L257,3c-4.7-4.7-13.1-3.8-18.8,1.8L97.1,146.6c-5.6,5.7-5.7,7.8-6.7,13.8l0,0l-3.3,35.2c-0.7,7.3,4.7,12.7,12,12
        l35.2-3.5l0,0c4.3-0.7,8.2-1.1,13.8-6.8L289.2,55.6C294.9,50,295.7,41.5,291,36.9z"/>
<path d="M243,146.4V236c0,6.6-5.4,12-12,12H57c-6.6,0-12-5.4-12-12V62c0-6.6,5.4-12,12-12h86.6l44.8-45H12C5.4,5,0,10.4,0,17v264
        c0,6.6,5.4,12,12,12h264c6.6,0,12-5.4,12-12V101.1L243,146.4z"/>
</svg>

