<svg version="1.1" xmlns="http://www.w3.org/2000/svg" xmlns:xlink="http://www.w3.org/1999/xlink" x="0px" y="0px" width="10px" height="11px" viewBox="0 -20 288 328" xml:space="preserve">
<path d="M252,144c0-14.7-2.9-28.6-8.2-41.4l33.1-13.7l0.1-0.1c-7-17-17.4-32.8-31.2-46.6l-25.5,25.5c-10-10-21.9-18-35.1-23.5 L199,11v-0.1C182,3.9,163.5,0,144,0v36c-14.7,0-28.6,2.9-41.4,8.2L88.9,11.1L88.8,11c-17,7-32.8,17.4-46.6,31.2l25.5,25.5 c-10,10-18,21.9-23.5,35.1L11,89h-0.1C3.9,106,0,124.5,0,144h36c0,14.7,2.9,28.6,8.2,41.4l-33.1,13.7l-0.1,0.1 c7,17,17,32.5,31.2,46.6l25.5-25.5c10,10,21.9,18,35.1,23.5L89,277v0.1c17,7,35,10.9,55,10.9v-36c14.7,0,28.6-2.9,41.4-8.2 l13.7,33.1l0.1,0.1c17-7,32.5-17,46.6-31.2l-25.5-25.5c10-10,18-21.9,23.5-35.1L277,199h0.1c7-17,10.9-35,10.9-55H252z M144,216 c-39.8,0-72-32.2-72-72c0-39.8,32.2-72,72-72s72,32.2,72,72C216,183.8,183.8,216,144,216z"/>
</svg>

